# xmcd
#
# Track frame offsets:
#	150
#	14364
#	29134
#	41189
#	54960
#	67433
#	80385
#	93725
#	107928
#	117687
#	130467
#	145300
#	157091
#	171520
#	185820
#	197934
#	212218
#	226753
#	241247
#	252743
#
# Disc length: 3568 seconds
#
# Revision: 0
# Processed by: cddbd v1.5.1PL0 Copyright (c) Steve Scherf et al.
# Submitted via: audiograbber 1.82.02
#
DISCID=470dee14
DTITLE=PERRY COMO - TILL THE END OF TIME
DYEAR=2001
DGENRE=Ballad
TTITLE0=TILL THE END OF TIME
TTITLE1=IF I LOVED YOU
TTITLE2=I'M GONNA LOVE THAT GIRL
TTITLE3=I'LL ALWAYS BE WITH YOU
TTITLE4=TEMPTATION
TTITLE5=MORE AND MORE
TTITLE6=LILI MARLENE
TTITLE7=LONG AGO (AND FAR AWAY)
TTITLE8=I LOVE YOU
TTITLE9=HAVE I STAYED AWAY TOO LONG?
TTITLE10=GOODBYE SUE
TTITLE11=DEEP IN THE HEART OF TEXAS
TTITLE12=LITTLE MAN YOU'VE HAD A BUSY DAY
TTITLE13=CAROLINA MOON
TTITLE14=LOVE ME OR LEAVE ME
TTITLE15=BODY AND SOUL
TTITLE16=I WONDER WHO'S KISSING HER NOW?
TTITLE17=WHEN YOU WERE SWEET SIXTEEN
TTITLE18=EASTER PARADE
TTITLE19=SO FAR
EXTD=PLANET MEDIA
EXTT0=
EXTT1=
EXTT2=
EXTT3=
EXTT4=
EXTT5=
EXTT6=
EXTT7=
EXTT8=
EXTT9=
EXTT10=
EXTT11=
EXTT12=
EXTT13=
EXTT14=
EXTT15=
EXTT16=
EXTT17=
EXTT18=
EXTT19=
PLAYORDER=
